<?xml version="1.0" encoding="UTF-8"?>
<svg id="Capa_1" xmlns="http://www.w3.org/2000/svg" viewBox="0 0 357.96 92.05">
  <defs>
    <style>
      .cls-1 {
        fill: #e5e9dd;
      }
    </style>
  </defs>
  <g>
    <path class="cls-1" d="M157.33,39.19v-16.11h-45.63v7.69h33.73l9.27-2.2v2.52l-42.99,28.03v16.35h45.63v-7.8h-33.71l-9.29,2.32v-2.63l42.99-28.15Z"/>
    <path class="cls-1" d="M204.75,57.12c-1.79,7.26-7.06,11.9-16.02,11.9-10.87,0-16.23-7.8-16.54-18.02h41.61v-3.37c0-16.21-10.1-25.59-25.59-25.59s-25.09,9.58-25.09,26.55c0,15.49,8.64,27.91,25.71,27.91,16.13,0,23.08-9.68,25.18-19.37h-9.27ZM168.41,44.36v-2.54l4.08.96c1.29-8.51,7.57-13.38,15.72-13.38,9.36,0,15.8,5.48,16.42,14.96h-36.22Z"/>
    <path class="cls-1" d="M237.41,67.53V31.07h16.44v-8h-13.4c-1.68,0-3.04-1.37-3.04-3.04V6.94l-9.36,2.85v10.24c0,1.68-1.37,3.04-3.04,3.04h-8.56v8h11.61l4.16-.96v2.54h-4.16v35.41c0,5.07,2.42,7.39,7.37,7.39h20.54v-8.02l-18.55.1Z"/>
    <path class="cls-1" d="M280.4,0c-4.12,0-7.37,2.95-7.37,7.06s3.26,7.06,7.37,7.06,7.59-2.97,7.59-7.06-3.37-7.06-7.59-7.06ZM285.88,67.44V29.18c0-4.31-2.11-6.11-5.91-6.11h-13.58v8h10.85v.06l4.37-1.01v2.54h-4.37v34.78h-14.53v8.02h37.82v-8.02h-14.65Z"/>
    <path class="cls-1" d="M330.24,22.02c-16.76,0-27.82,11.68-27.82,27.17s11.06,27.29,27.82,27.29,27.72-11.68,27.72-27.29-11.08-27.17-27.72-27.17ZM330.24,68.49c-12.02,0-18.55-8.64-18.55-19.29s6.53-19.18,18.55-19.18,18.43,8.64,18.43,19.18-6.54,19.29-18.43,19.29Z"/>
  </g>
  <path class="cls-1" d="M75.44,28.37c-1.46-3.5-4.71-5.67-8.5-5.67H10.67c-2.93,0-5.33-2.4-5.33-5.33s2.4-5.33,5.33-5.33h40.26c1.62,0,2.95.89,3.57,2.38.6,1.49.3,3.06-.84,4.2l-2.31,2.31h7.27c1.69-2.51,1.99-5.64.8-8.55-1.46-3.5-4.71-5.67-8.5-5.67H10.67C4.78,6.69,0,11.48,0,17.36s4.78,10.67,10.67,10.67h56.27c1.62,0,2.95.89,3.57,2.38.6,1.49.3,3.06-.84,4.2l-34.32,34.32h7.54l30.55-30.55c2.69-2.67,3.43-6.51,1.99-10.01ZM74.69,70.71H18.42c-1.62,0-2.95-.89-3.57-2.38-.6-1.49-.3-3.06.84-4.2L50.01,29.81h-7.54l-30.55,30.55c-2.69,2.67-3.43,6.51-1.99,10.01,1.46,3.5,4.71,5.67,8.5,5.67h56.27c2.93,0,5.33,2.4,5.33,5.33s-2.4,5.33-5.33,5.33h-40.26c-1.62,0-2.95-.89-3.57-2.38-.6-1.49-.3-3.06.84-4.2l2.31-2.31h-7.27c-1.69,2.51-1.99,5.64-.8,8.55,1.46,3.5,4.71,5.67,8.5,5.67h40.26c5.89,0,10.67-4.78,10.67-10.67s-4.78-10.67-10.67-10.67Z"/>
</svg>